<svg xmlns="http://www.w3.org/2000/svg" xmlns:xlink="http://www.w3.org/1999/xlink" version="1.1" x="0px" y="0px" viewBox="0 0 100 125" enable-background="new 0 0 100 100" xml:space="preserve"><g display="none"><g display="inline"><polygon points="53.237,53.126 46.874,46.764 71.269,18.125 81.875,28.731   "/><polygon points="46.874,46.764 53.237,53.126 46.874,57.37 42.63,53.126   "/><circle stroke="#FFFFFF" stroke-width="2" stroke-miterlimit="10" cx="80.461" cy="19.539" r="10" fill="#000000"/><line fill="#000000" stroke="#FFFFFF" stroke-width="2" stroke-miterlimit="10" x1="73.392" y1="12.467" x2="87.533" y2="26.609"/><line fill="none" stroke="#000000" stroke-width="3" stroke-linecap="round" stroke-miterlimit="10" x1="59.586" y1="40.414" x2="9.538" y2="90.462"/></g></g><g><path d="M88.204,25.866l-14.069-14.07c3.929-3.219,9.733-2.994,13.398,0.671S91.423,21.938,88.204,25.866z M72.721,13.21   c-1.396,1.704-2.144,3.762-2.244,5.845L46.874,46.764l-4.244,6.362l1.062,1.062L8.478,89.401c-0.586,0.586-0.586,1.535,0,2.121   c0.293,0.293,0.677,0.439,1.061,0.439s0.768-0.146,1.061-0.439l35.214-35.214l1.062,1.062l6.363-4.244l27.707-23.602   c2.083-0.101,4.142-0.847,5.847-2.244L72.721,13.21z"/></g><text x="0" y="115" fill="#000000" font-size="5px" font-weight="bold" font-family="'Helvetica Neue', Helvetica, Arial-Unicode, Arial, Sans-serif">Created by Valter Bispo</text><text x="0" y="120" fill="#000000" font-size="5px" font-weight="bold" font-family="'Helvetica Neue', Helvetica, Arial-Unicode, Arial, Sans-serif">from the Noun Project</text></svg>