<svg xmlns="http://www.w3.org/2000/svg" xmlns:xlink="http://www.w3.org/1999/xlink" version="1.1" x="0px" y="0px" viewBox="0 0 100 125" enable-background="new 0 0 100 100" xml:space="preserve"><g display="none"><path display="inline" fill="none" stroke="#000000" stroke-width="4" stroke-miterlimit="10" d="M13.273,54.997   c0,3.067,2.486,5.553,5.553,5.553H37.15c3.066,0,5.552-2.485,5.552-5.553v-9.994c0-3.067-2.486-5.553-5.552-5.553H13.273   c0,0,0,2.485,0,5.553V54.997z"/><path display="inline" fill="none" stroke="#000000" stroke-miterlimit="10" d="M18.271,31.677H5.5c0,0,0,2.485,0,5.552"/><path display="inline" fill="none" stroke="#000000" stroke-width="4" stroke-miterlimit="10" d="M86.837,54.997   c0,3.067-2.486,5.553-5.553,5.553H62.961c-3.065,0-5.553-2.485-5.553-5.553v-9.994c0-3.067,2.487-5.553,5.553-5.553h23.876   c0,0,0,2.485,0,5.553V54.997z"/><path display="inline" fill="none" stroke="#000000" stroke-miterlimit="10" d="M93.5,52.775v9.996   c0,3.066-2.485,5.553-5.553,5.553H69.623"/><line display="inline" fill="none" stroke="#000000" stroke-width="4" stroke-miterlimit="10" x1="42.702" y1="45.003" x2="57.408" y2="45.003"/><g display="inline"><path d="M22.923,56.175c0,0,0.535-1.009,1.525-2.334c0.488-0.67,1.088-1.421,1.761-2.194c0.67-0.777,1.409-1.582,2.182-2.354    c0.771-0.772,1.573-1.514,2.352-2.184c0.773-0.674,1.524-1.273,2.194-1.761c1.326-0.989,2.336-1.524,2.336-1.524    s-0.534,1.01-1.524,2.336c-0.487,0.67-1.087,1.422-1.761,2.195c-0.669,0.777-1.411,1.58-2.183,2.352    c-0.771,0.771-1.576,1.511-2.353,2.182c-0.774,0.673-1.525,1.272-2.195,1.761C23.932,55.64,22.923,56.175,22.923,56.175z"/></g><g display="inline"><path d="M22.301,51.245c0,0,0.227-0.7,0.755-1.563c0.508-0.884,1.323-1.924,2.248-2.854c0.928-0.927,1.967-1.743,2.852-2.25    c0.864-0.527,1.565-0.754,1.565-0.754s-0.226,0.702-0.753,1.566c-0.507,0.884-1.323,1.923-2.25,2.852    c-0.93,0.925-1.97,1.74-2.854,2.248C23.001,51.018,22.301,51.245,22.301,51.245z"/></g><g display="inline"><path d="M67.059,56.175c0,0,0.535-1.009,1.525-2.334c0.488-0.67,1.088-1.421,1.761-2.194c0.671-0.777,1.409-1.582,2.182-2.354    c0.771-0.772,1.573-1.514,2.352-2.184c0.773-0.674,1.524-1.273,2.194-1.761c1.326-0.989,2.336-1.524,2.336-1.524    s-0.534,1.01-1.523,2.336c-0.487,0.67-1.087,1.422-1.762,2.195c-0.669,0.777-1.41,1.58-2.183,2.352    c-0.771,0.771-1.576,1.511-2.354,2.182c-0.773,0.673-1.524,1.272-2.194,1.761C68.067,55.64,67.059,56.175,67.059,56.175z"/></g><g display="inline"><path d="M66.436,51.245c0,0,0.228-0.7,0.755-1.563c0.508-0.884,1.323-1.924,2.248-2.854c0.929-0.927,1.967-1.743,2.852-2.25    c0.864-0.527,1.565-0.754,1.565-0.754s-0.226,0.702-0.753,1.566c-0.507,0.884-1.323,1.923-2.25,2.852    c-0.93,0.925-1.97,1.74-2.854,2.248C67.136,51.018,66.436,51.245,66.436,51.245z"/></g></g><g display="none"><path display="inline" fill="none" stroke="#000000" stroke-width="4" stroke-miterlimit="10" d="M13.273,54.997   c0,3.067,2.486,5.553,5.553,5.553H37.15c3.066,0,5.552-2.485,5.552-5.553v-9.994c0-3.067-2.486-5.553-5.552-5.553H13.273   c0,0,0,2.485,0,5.553V54.997z"/><path display="inline" fill="none" stroke="#000000" stroke-width="4" stroke-miterlimit="10" d="M86.837,54.997   c0,3.067-2.486,5.553-5.553,5.553H62.961c-3.065,0-5.553-2.485-5.553-5.553v-9.994c0-3.067,2.487-5.553,5.553-5.553h23.876   c0,0,0,2.485,0,5.553V54.997z"/><line display="inline" fill="none" stroke="#000000" stroke-width="4" stroke-miterlimit="10" x1="42.702" y1="45.003" x2="57.408" y2="45.003"/><g display="inline"><path d="M22.923,56.175c0,0,0.535-1.009,1.525-2.334c0.488-0.67,1.088-1.421,1.761-2.194c0.67-0.777,1.409-1.582,2.182-2.354    c0.771-0.772,1.573-1.514,2.352-2.184c0.773-0.674,1.524-1.273,2.194-1.761c1.326-0.989,2.336-1.524,2.336-1.524    s-0.534,1.01-1.524,2.336c-0.487,0.67-1.087,1.422-1.761,2.195c-0.669,0.777-1.411,1.58-2.183,2.352    c-0.771,0.771-1.576,1.511-2.353,2.182c-0.774,0.673-1.525,1.272-2.195,1.761C23.932,55.64,22.923,56.175,22.923,56.175z"/></g><g display="inline"><path d="M22.301,51.245c0,0,0.227-0.7,0.755-1.563c0.508-0.884,1.323-1.924,2.248-2.854c0.928-0.927,1.967-1.743,2.852-2.25    c0.864-0.527,1.565-0.754,1.565-0.754s-0.226,0.702-0.753,1.566c-0.507,0.884-1.323,1.923-2.25,2.852    c-0.93,0.925-1.97,1.74-2.854,2.248C23.001,51.018,22.301,51.245,22.301,51.245z"/></g><g display="inline"><path d="M67.059,56.175c0,0,0.535-1.009,1.525-2.334c0.488-0.67,1.088-1.421,1.761-2.194c0.671-0.777,1.409-1.582,2.182-2.354    c0.771-0.772,1.573-1.514,2.352-2.184c0.773-0.674,1.524-1.273,2.194-1.761c1.326-0.989,2.336-1.524,2.336-1.524    s-0.534,1.01-1.523,2.336c-0.487,0.67-1.087,1.422-1.762,2.195c-0.669,0.777-1.41,1.58-2.183,2.352    c-0.771,0.771-1.576,1.511-2.354,2.182c-0.773,0.673-1.524,1.272-2.194,1.761C68.067,55.64,67.059,56.175,67.059,56.175z"/></g><g display="inline"><path d="M66.436,51.245c0,0,0.228-0.7,0.755-1.563c0.508-0.884,1.323-1.924,2.248-2.854c0.929-0.927,1.967-1.743,2.852-2.25    c0.864-0.527,1.565-0.754,1.565-0.754s-0.226,0.702-0.753,1.566c-0.507,0.884-1.323,1.923-2.25,2.852    c-0.93,0.925-1.97,1.74-2.854,2.248C67.136,51.018,66.436,51.245,66.436,51.245z"/></g></g><g><path d="M6.5,37.228h-1v-6.052h13.271v1H6.5V37.228z M94.5,62.771v-9.996h-1v9.996c0,2.785-2.267,5.053-5.053,5.053H70.123v1   h18.324C91.785,68.824,94.5,66.109,94.5,62.771z M89.337,37.45v17.546c0,4.166-3.388,7.553-7.553,7.553H63.461   c-4.165,0-7.553-3.387-7.553-7.553v-7.994H45.202v7.994c0,4.166-3.388,7.553-7.552,7.553H19.326c-4.165,0-7.553-3.387-7.553-7.553   V37.45H37.65c3.471,0,6.395,2.357,7.275,5.553h11.261c0.88-3.195,3.804-5.553,7.275-5.553H89.337z M41.202,45.002   c0-1.959-1.594-3.553-3.552-3.553H15.773v13.546c0,1.959,1.594,3.553,3.553,3.553H37.65c1.958,0,3.552-1.594,3.552-3.553V45.002z    M85.337,41.45H63.461c-1.959,0-3.553,1.594-3.553,3.553v9.994c0,1.959,1.594,3.553,3.553,3.553h18.323   c1.959,0,3.553-1.594,3.553-3.553V41.45z M25.757,54.648c0.67-0.488,1.421-1.088,2.195-1.76c0.777-0.672,1.582-1.41,2.353-2.182   c0.772-0.771,1.514-1.574,2.183-2.352c0.674-0.773,1.274-1.525,1.761-2.195c0.99-1.326,1.524-2.336,1.524-2.336   s-1.01,0.535-2.336,1.524c-0.67,0.487-1.421,1.087-2.194,1.761c-0.778,0.67-1.58,1.411-2.352,2.184   c-0.772,0.771-1.511,1.576-2.182,2.354c-0.673,0.773-1.273,1.523-1.761,2.193c-0.99,1.326-1.525,2.334-1.525,2.334   S24.432,55.639,25.757,54.648z M24.364,50.49c0.883-0.508,1.923-1.323,2.854-2.248c0.927-0.929,1.743-1.968,2.25-2.852   c0.527-0.864,0.753-1.566,0.753-1.566s-0.702,0.227-1.565,0.754c-0.884,0.507-1.923,1.323-2.852,2.25   c-0.925,0.93-1.74,1.97-2.248,2.854c-0.528,0.863-0.755,1.563-0.755,1.563S23.501,51.018,24.364,50.49z M69.893,54.648   c0.67-0.488,1.421-1.088,2.194-1.76c0.777-0.672,1.582-1.41,2.354-2.182c0.772-0.771,1.514-1.574,2.183-2.352   c0.675-0.773,1.274-1.525,1.762-2.195c0.989-1.326,1.523-2.336,1.523-2.336s-1.01,0.535-2.336,1.524   c-0.67,0.487-1.421,1.087-2.194,1.761c-0.778,0.67-1.58,1.411-2.352,2.184c-0.772,0.771-1.511,1.576-2.182,2.354   c-0.673,0.773-1.272,1.523-1.761,2.193c-0.99,1.326-1.525,2.334-1.525,2.334S68.567,55.639,69.893,54.648z M68.499,50.49   c0.884-0.508,1.924-1.323,2.854-2.248c0.927-0.929,1.743-1.968,2.25-2.852c0.527-0.864,0.753-1.566,0.753-1.566   s-0.701,0.227-1.565,0.754c-0.885,0.507-1.923,1.323-2.852,2.25c-0.925,0.93-1.74,1.97-2.248,2.854   c-0.527,0.863-0.755,1.563-0.755,1.563S67.636,51.018,68.499,50.49z"/></g><text x="0" y="115" fill="#000000" font-size="5px" font-weight="bold" font-family="'Helvetica Neue', Helvetica, Arial-Unicode, Arial, Sans-serif">Created by Valter Bispo</text><text x="0" y="120" fill="#000000" font-size="5px" font-weight="bold" font-family="'Helvetica Neue', Helvetica, Arial-Unicode, Arial, Sans-serif">from the Noun Project</text></svg>