<svg xmlns="http://www.w3.org/2000/svg" xmlns:xlink="http://www.w3.org/1999/xlink" version="1.1" x="0px" y="0px" viewBox="0 0 100 125" enable-background="new 0 0 100 100" xml:space="preserve"><g display="none"><g display="inline"><line fill="none" stroke="#000000" stroke-width="2" stroke-linecap="round" stroke-miterlimit="10" x1="57.472" y1="43.449" x2="53.715" y2="39.434"/><line fill="none" stroke="#000000" stroke-width="2" stroke-linecap="round" stroke-miterlimit="10" x1="55.816" y1="37.472" x2="51.618" y2="41.398"/><line fill="none" stroke="#000000" stroke-width="2" stroke-linecap="round" stroke-miterlimit="10" x1="64.192" y1="37.168" x2="60.436" y2="33.151"/><line fill="none" stroke="#000000" stroke-width="2" stroke-linecap="round" stroke-miterlimit="10" x1="62.533" y1="31.185" x2="58.335" y2="35.112"/><line fill="none" stroke="#000000" stroke-width="2" stroke-linecap="round" stroke-miterlimit="10" x1="70.909" y1="30.88" x2="67.156" y2="26.865"/><line fill="none" stroke="#000000" stroke-width="2" stroke-linecap="round" stroke-miterlimit="10" x1="69.257" y1="24.905" x2="65.056" y2="28.832"/><line fill="none" stroke="#000000" stroke-width="2" stroke-linecap="round" stroke-miterlimit="10" x1="37.752" y1="61.892" x2="33.996" y2="57.875"/><line fill="none" stroke="#000000" stroke-width="2" stroke-linecap="round" stroke-miterlimit="10" x1="36.097" y1="55.914" x2="31.897" y2="59.842"/><line fill="none" stroke="#000000" stroke-width="2" stroke-linecap="round" stroke-miterlimit="10" x1="31.178" y1="68.04" x2="27.422" y2="64.023"/><line fill="none" stroke="#000000" stroke-width="2" stroke-linecap="round" stroke-miterlimit="10" x1="29.523" y1="62.061" x2="25.324" y2="65.988"/><line fill="none" stroke="#000000" stroke-width="2" stroke-linecap="round" stroke-miterlimit="10" x1="44.473" y1="55.608" x2="40.715" y2="51.595"/><line fill="none" stroke="#000000" stroke-width="2" stroke-linecap="round" stroke-miterlimit="10" x1="42.814" y1="49.628" x2="38.615" y2="53.555"/><line fill="none" stroke="#000000" stroke-width="2" stroke-linecap="round" stroke-miterlimit="10" x1="51.189" y1="49.324" x2="47.437" y2="45.309"/><line fill="none" stroke="#000000" stroke-width="2" stroke-linecap="round" stroke-miterlimit="10" x1="49.535" y1="43.348" x2="45.336" y2="47.274"/></g><g display="inline"><path d="M10.527,76.352c-5.73-5.729-3.434-13.459,1.413-18.307c19.92-19.92,12.486-17.515,12.479-17.59    c0.002,0.003,12.74,1.771,12.74,1.771c0.506,4.437-0.078,9.062-16.027,25.012c-1.158,1.158-2.047,3.53-1.023,4.554    s3.827-0.44,4.482-1.095l46.626-43.793l3.536,3.536L29.54,75.646C23.828,81.358,15.831,81.656,10.527,76.352z"/></g><path display="inline" fill="none" stroke="#000000" stroke-width="5" stroke-miterlimit="10" d="M85.179,34.152   c-2.167-2.166-1.531-5.137-4.254-7.859c-2.777-2.777-6.7,1.146-8.167,2.611"/><path display="inline" d="M83.172,31.826c-2.832,2.829,3.964,8.331,3.964,8.331s5.403,3.515,6.643,2.275l-2.272-6.644   C91.506,35.789,86.005,28.996,83.172,31.826z"/><path display="inline" d="M23.352,38.365c-0.431,1.61,3.141,3.971,7.979,5.266c4.841,1.301,9.109,1.042,9.544-0.571   c0.431-1.613-3.141-3.973-7.977-5.267C28.058,36.494,23.787,36.751,23.352,38.365z"/></g><g><path d="M93.778,42.433c-1.239,1.239-6.643-2.275-6.643-2.275s-2.712-2.199-3.994-4.531c-1.232-1.363-1.737-2.852-2.178-4.176   c-0.422-1.271-0.786-2.369-1.807-3.39c-0.38-0.376-1.48-0.54-4.63,2.61l-0.002-0.003L29.54,75.646   c-5.712,5.712-13.709,6.01-19.013,0.705c-5.73-5.729-3.434-13.459,1.413-18.307C22.794,47.191,25.521,42.972,25.76,41.361   c-0.486-0.295-0.912-0.596-1.265-0.896c-0.044-0.006-0.075-0.011-0.075-0.011c0,0.004,0.023,0,0.056-0.005   c-0.86-0.737-1.289-1.467-1.124-2.085c0.436-1.614,4.706-1.871,9.546-0.572c4.836,1.294,8.407,3.653,7.977,5.267   c-0.237,0.881-1.623,1.354-3.616,1.395c-0.189,4.013-2.77,9.427-16.125,22.783c-1.158,1.158-2.047,3.53-1.023,4.554   s3.827-0.44,4.482-1.095l4.1-3.851l-1.315-1.407l-1.368,1.28c-0.193,0.181-0.438,0.27-0.684,0.27c-0.267,0-0.533-0.106-0.73-0.317   c-0.377-0.403-0.356-1.036,0.048-1.413l2.093-1.958c0.002-0.002,0.003-0.005,0.005-0.007s0.005-0.003,0.008-0.005l2.093-1.958   c0.403-0.376,1.036-0.356,1.414,0.048c0.377,0.403,0.356,1.036-0.048,1.413l-1.37,1.281l1.313,1.404l5.104-4.794l-1.302-1.392   l-1.37,1.281c-0.193,0.181-0.438,0.27-0.684,0.27c-0.267,0-0.533-0.106-0.73-0.317c-0.377-0.403-0.356-1.036,0.048-1.413   l2.092-1.957c0.003-0.003,0.004-0.007,0.007-0.01s0.008-0.004,0.011-0.007l2.089-1.954c0.404-0.377,1.035-0.357,1.414,0.048   c0.377,0.403,0.356,1.036-0.048,1.413l-1.368,1.28l1.3,1.39l5.246-4.929l-1.291-1.38l-1.368,1.279   c-0.192,0.181-0.438,0.27-0.683,0.27c-0.267,0-0.533-0.106-0.73-0.317c-0.377-0.403-0.355-1.036,0.048-1.413l4.199-3.927   c0.402-0.377,1.035-0.355,1.413,0.048c0.377,0.403,0.355,1.036-0.048,1.413l-1.37,1.281l1.289,1.376l5.248-4.929l-1.274-1.364   l-1.371,1.282c-0.192,0.181-0.438,0.27-0.683,0.27c-0.267,0-0.533-0.106-0.73-0.317c-0.377-0.403-0.355-1.036,0.048-1.413   l2.098-1.961c0.001-0.002,0.002-0.004,0.003-0.005c0.002-0.001,0.003-0.002,0.005-0.003l2.094-1.958   c0.402-0.377,1.035-0.356,1.413,0.048c0.377,0.403,0.355,1.036-0.048,1.413l-1.367,1.279l1.271,1.36l4.811-4.519l-1.264-1.351   l-1.368,1.28c-0.192,0.181-0.438,0.27-0.683,0.27c-0.267,0-0.533-0.106-0.73-0.317c-0.377-0.403-0.356-1.036,0.048-1.413   l2.086-1.951c0.004-0.004,0.006-0.01,0.01-0.014s0.01-0.005,0.015-0.009l2.088-1.953c0.402-0.377,1.035-0.357,1.413,0.048   c0.377,0.403,0.356,1.036-0.048,1.413l-1.368,1.28l1.26,1.347l5.248-4.929l-1.252-1.338l-1.368,1.28   c-0.193,0.181-0.438,0.27-0.684,0.27c-0.267,0-0.533-0.106-0.73-0.316c-0.377-0.403-0.356-1.036,0.047-1.414l4.198-3.928   c0.404-0.377,1.036-0.355,1.414,0.047c0.377,0.403,0.356,1.036-0.047,1.414l-1.37,1.281l1.249,1.336l5.25-4.931L67.11,28.28   l-1.372,1.282c-0.192,0.181-0.438,0.27-0.683,0.27c-0.267,0-0.533-0.106-0.73-0.317c-0.377-0.403-0.355-1.036,0.048-1.413   l2.094-1.957c0.003-0.003,0.004-0.007,0.007-0.01s0.008-0.004,0.011-0.007l2.09-1.953c0.402-0.377,1.035-0.357,1.413,0.048   c0.377,0.403,0.355,1.036-0.048,1.413l-1.368,1.279l1.231,1.317l1.415-1.329l0.007,0.007c4.645-4.541,8.501-5.351,11.468-2.385   c1.857,1.857,2.5,3.793,3.017,5.349c0.223,0.669,0.404,1.179,0.614,1.604c2.558,1.071,5.183,4.311,5.183,4.311L93.778,42.433z"/></g><text x="0" y="115" fill="#000000" font-size="5px" font-weight="bold" font-family="'Helvetica Neue', Helvetica, Arial-Unicode, Arial, Sans-serif">Created by Valter Bispo</text><text x="0" y="120" fill="#000000" font-size="5px" font-weight="bold" font-family="'Helvetica Neue', Helvetica, Arial-Unicode, Arial, Sans-serif">from the Noun Project</text></svg>