<svg xmlns:dc="http://purl.org/dc/elements/1.1/" xmlns:cc="http://creativecommons.org/ns#" xmlns:rdf="http://www.w3.org/1999/02/22-rdf-syntax-ns#" xmlns:svg="http://www.w3.org/2000/svg" xmlns="http://www.w3.org/2000/svg" xmlns:sodipodi="http://sodipodi.sourceforge.net/DTD/sodipodi-0.dtd" xmlns:inkscape="http://www.inkscape.org/namespaces/inkscape" version="1.1" x="0px" y="0px" viewBox="0 0 100 125"><g transform="translate(0,-952.36218)"><g transform="translate(11.998032,958.35431)"><path d="M 13.996063,0 C 18,0 22.003937,5.031496 22.003937,8.0078739 c 0,8.0078741 -5.988189,18.0000001 -5.988189,22.0039371 0,4.003937 1.984252,7.015748 3.968504,7.015748 3.011811,0 5.031496,-2.019685 7.015748,-4.003937 L 26.007874,27 c -0.531496,-3.188977 1.771653,-6.661418 5.244094,-9.212599 -0.496063,2.090552 -0.566929,4.251969 -0.212598,5.704725 0.637795,2.586614 2.480315,4.889763 5.102362,6.944882 4.216536,3.259842 11.799213,7.15748 19.38189,9.318897 -1.594488,0.779528 -3.259843,1.452756 -5.279528,1.84252 l 9.602363,14.846456 c 0.248031,0.425197 0.177165,0.992126 -0.177166,1.311024 l -12.685039,10.665354 0,18.602362 c 0,0.531496 -0.46063,0.992126 -0.992126,0.992126 l -4.003937,0 c -0.531496,0 -0.992126,-0.46063 -0.992126,-0.992126 0,-0.531496 0.46063,-1.027559 0.992126,-0.992126 l 3.011811,0 0,-15.909449 -4.003937,3.366142 0,3.543307 c 0,0.496063 -0.46063,0.992126 -0.992126,0.992126 -0.531496,0 -1.027559,-0.496063 -0.992126,-0.992126 l 0,-4.003937 c -0.03543,-0.318897 0.106299,-0.602362 0.318898,-0.779527 L 45,67.499999 45,41.988189 c -5.562992,-0.212599 -10.240158,-2.161418 -13.996063,-4.96063 -3.011811,2.976378 -7.015748,5.988189 -11.019685,5.988189 -3.968504,0 -9.992126,-4.003937 -9.992126,-8.007874 C 9.992126,27 18,10.027559 16.015748,8.0078739 14.42126,9.566929 12.862205,10.523622 10.807087,10.84252 10.629921,8.6456692 8.8582677,6.7322834 7.0511811,4.9251968 8.0787401,2.9409448 10.062992,0 13.996063,0 z m -0.992126,4.003937 c -0.566929,0 -0.992126,0.4606299 -0.992126,1.027559 0,0.5314961 0.425197,0.992126 0.992126,0.992126 0.531496,0 0.992126,-0.4606299 0.992126,-0.992126 0,-0.5669291 -0.46063,-1.027559 -0.992126,-1.027559 z M 5.9173228,6.4488188 C 7.511811,7.9015747 8.9291338,9.2834645 8.7519685,11.409449 6.8385827,14.456693 4.996063,19.169291 4.996063,23.031496 3.011811,21.011811 0,18 0,15.023622 0,12.472441 3.5787401,9.2125983 5.9173228,6.4488188 z M 41.988189,14.031496 C 54,14.031496 63,25.015748 76.003937,35.007874 72,36 66.011811,38.019685 58.996063,38.019685 58.748031,38.161417 58.5,38.267716 58.251968,38.374015 50.137795,36.425196 41.633858,32.137795 37.38189,28.842519 34.972441,26.964567 33.448819,24.980315 32.952756,22.996063 32.102362,16.15748 36,14.066929 41.988189,14.031496 z m -1.594488,9.46063 c -0.389764,0.318897 -0.566929,0.956693 -0.248032,1.381889 1.062992,1.559056 3.047244,4.074804 5.066929,5.385827 1.311024,0.814961 2.586614,1.098425 3.720473,0.07087 0.708661,0.744095 1.488189,1.417323 2.303149,1.948819 1.169292,0.814961 2.232284,0.956693 3.401575,0.318898 0.354331,-0.248032 0.637795,-0.637795 0.814961,-1.062992 0.566929,0.566929 1.169291,1.062992 1.771653,1.452756 1.169292,0.81496 2.30315,0.956693 3.401575,0.318897 1.062992,-0.779527 1.38189,-2.161417 1.38189,-4.287401 0,-0.531496 -0.496063,-1.027559 -0.992126,-1.027559 -0.531496,0 -1.027559,0.496063 -1.027559,1.027559 0,1.877952 -0.177166,2.232283 -0.354331,2.374015 -0.46063,0.389764 -0.956693,0.141733 -1.346457,-0.106299 -1.488189,-0.956693 -3.507874,-3.437008 -4.429133,-4.818897 -0.177166,-0.283465 -0.425197,-0.46063 -0.744095,-0.496063 -0.744094,-0.1063 -1.417323,0.921259 -0.956693,1.559055 0.425197,0.673228 1.027559,1.488189 1.700788,2.303149 0.212598,0.531496 0.07087,0.744095 -0.177166,0.992126 -0.425197,0.283465 -0.956693,0.07087 -1.417323,-0.248031 -1.452756,-0.956693 -3.472441,-3.437008 -4.429133,-4.854331 -0.46063,-0.531496 -0.885827,-0.496063 -1.346457,-0.283464 -0.425197,0.318897 -0.673229,0.956693 -0.318898,1.417322 0.354331,0.531496 0.850394,1.240158 1.38189,1.913386 0,0.46063 -0.779528,0.248032 -1.275591,-0.212598 -1.452755,-0.92126 -3.472441,-3.401575 -4.429133,-4.818898 -0.425197,-0.46063 -0.992126,-0.566929 -1.452756,-0.248031 z m 7.653543,18.425196 c -0.318898,0.03543 -0.673228,0.03543 -1.062992,0.07087 l 0,23.811023 10.700787,-9 z" style="" fill="#000000" fill-opacity="1" fill-rule="nonzero" stroke="none"/></g></g><text x="0" y="115" fill="#000000" font-size="5px" font-weight="bold" font-family="'Helvetica Neue', Helvetica, Arial-Unicode, Arial, Sans-serif">Created by AFY Studio</text><text x="0" y="120" fill="#000000" font-size="5px" font-weight="bold" font-family="'Helvetica Neue', Helvetica, Arial-Unicode, Arial, Sans-serif">from the Noun Project</text></svg>