<svg xmlns="http://www.w3.org/2000/svg" xmlns:xlink="http://www.w3.org/1999/xlink" version="1.1" x="0px" y="0px" viewBox="0 0 64 80" style="enable-background:new 0 0 64 64;" xml:space="preserve"><g><path d="M64,0H0v14h23v2h2v-2h10v3c0,0.6-0.4,1-1,1H11c-1.7,0-3,1.3-3,3v1h2v-1c0-0.6,0.4-1,1-1h12v1c0,1.7,1.3,3,3,3h15v1   c0,0.6-0.4,1-1,1h-6c-1.7,0-3,1.3-3,3v1H21v-3c0-1.7-1.3-3-3-3H0v2h8v4H0v34h64V30H50v-5c0-1.7-1.3-3-3-3H26c-0.6,0-1-0.4-1-1v-1h9   c1.7,0,3-1.3,3-3v-3h4v6h2v-6h21V0z M10,26h8c0.6,0,1,0.4,1,1v3h-9V26z M62,32v30H2V32h6v16c0,1.7,1.3,3,3,3h7.3c0.3,0.6,1,1,1.7,1   c1.1,0,2-0.9,2-2s-0.9-2-2-2c-0.7,0-1.4,0.4-1.7,1H11c-0.6,0-1-0.4-1-1V32h9v4.3c-0.6,0.3-1,1-1,1.7c0,1.1,0.9,2,2,2s2-0.9,2-2   c0-0.7-0.4-1.4-1-1.7V32h10v4.3c-0.6,0.3-1,1-1,1.7c0,1.1,0.9,2,2,2s2-0.9,2-2c0-0.7-0.4-1.4-1-1.7V32h15v22c0,0.6-0.4,1-1,1h-7.3   c-0.3-0.6-1-1-1.7-1c-1.1,0-2,0.9-2,2s0.9,2,2,2c0.7,0,1.4-0.4,1.7-1H47c1.7,0,3-1.3,3-3V32H62z M48,25v5H33v-1c0-0.6,0.4-1,1-1h6   c1.7,0,3-1.3,3-3v-1h4C47.6,24,48,24.4,48,25z M2,2h14v10H2V2z M62,12H43V9.7c0.6-0.3,1-1,1-1.7c0-1.1-0.9-2-2-2s-2,0.9-2,2   c0,0.7,0.4,1.4,1,1.7V12h-4V9.7c0.6-0.3,1-1,1-1.7c0-1.1-0.9-2-2-2s-2,0.9-2,2c0,0.7,0.4,1.4,1,1.7V12H25V9.7c0.6-0.3,1-1,1-1.7   c0-1.1-0.9-2-2-2s-2,0.9-2,2c0,0.7,0.4,1.4,1,1.7V12h-5V2h44V12z"/><circle cx="30" cy="8" r="2"/><circle cx="26" cy="38" r="2"/><circle cx="38" cy="38" r="2"/><circle cx="20" cy="44" r="2"/><circle cx="14" cy="38" r="2"/><circle cx="14" cy="44" r="2"/><circle cx="26" cy="44" r="2"/><circle cx="32" cy="44" r="2"/><circle cx="38" cy="44" r="2"/><circle cx="26" cy="50" r="2"/><circle cx="32" cy="50" r="2"/><circle cx="38" cy="50" r="2"/><circle cx="44" cy="38" r="2"/><circle cx="44" cy="44" r="2"/><circle cx="44" cy="50" r="2"/><circle cx="20" cy="56" r="2"/><circle cx="14" cy="56" r="2"/><circle cx="26" cy="56" r="2"/><circle cx="32" cy="56" r="2"/><rect x="52" y="4" width="2" height="6"/><rect x="48" y="4" width="2" height="6"/><rect x="4" y="4" width="4" height="4"/><rect x="58" y="4" width="2" height="2"/><rect x="58" y="8" width="2" height="2"/><rect x="12" y="4" width="2" height="2"/><rect y="18" width="2" height="2"/><rect x="54" y="22" width="2" height="2"/><rect x="58" y="22" width="2" height="2"/><rect x="4" y="58" width="2" height="2"/><rect x="4" y="54" width="2" height="2"/><rect x="4" y="34" width="2" height="2"/><rect x="58" y="58" width="2" height="2"/><rect x="52" y="36" width="8" height="4"/><rect x="58" y="42" width="2" height="2"/><rect x="58" y="46" width="2" height="2"/><rect x="58" y="50" width="2" height="2"/><rect x="54" y="54" width="2" height="2"/><rect x="54" y="46" width="2" height="2"/><rect x="54" y="50" width="2" height="2"/></g><text x="0" y="79" fill="#000000" font-size="5px" font-weight="bold" font-family="'Helvetica Neue', Helvetica, Arial-Unicode, Arial, Sans-serif">Created by Anatolii Babii</text><text x="0" y="84" fill="#000000" font-size="5px" font-weight="bold" font-family="'Helvetica Neue', Helvetica, Arial-Unicode, Arial, Sans-serif">from the Noun Project</text></svg>