<svg xmlns="http://www.w3.org/2000/svg" xmlns:xlink="http://www.w3.org/1999/xlink" version="1.1" x="0px" y="0px" viewBox="0 0 100 125" enable-background="new 0 0 100 100" xml:space="preserve"><g display="none"><path display="inline" d="M42.639,110.158c0-11.262,6.999-20.388,16.719-20.388c6.563,0,10.342,5.605,14.962,5.605   c3.078,0,9.042-1.94,12.558-2.059c3.873-0.13,7.062,0.782,7.435,3.412c0.605,4.271-9.311,4.188-8.913,9.354   c0.119,1.554-0.76,2.473-0.76,4.074L83,113.084c0,0-1.542,1-1.361,2.926c0.203,2.161,7.319,4.282,7.465,6.383   c0.095,1.373-0.881,4.457-4.227,4.457c-3.518,0-7.479-2.059-10.558-2.059c-4.62,0-8.399,5.605-14.962,5.605   c-9.72,0-16.719-9.128-16.719-20.387"/><circle display="inline" cx="5.125" cy="51.5" r="2.5"/><polyline display="inline" fill="none" stroke="#000000" stroke-linejoin="round" stroke-miterlimit="10" points="7.125,51.5    7.125,41.5 -0.875,44.5 -0.875,54.5  "/><circle display="inline" cx="-1.75" cy="65.998" r="2.5"/><line display="inline" fill="none" stroke="#000000" stroke-linejoin="round" stroke-miterlimit="10" x1="-0.018" y1="66.998" x2="4.982" y2="58.337"/><g display="inline"><g><path d="M42.639,50.009c0,11.259,6.999,20.387,16.719,20.387c6.563,0,10.342-5.605,14.962-5.605c3.078,0,7.04,3.059,10.558,3.059     c8.032,0,12.762-7.988,12.762-17.84"/></g><g><path d="M42.639,50.158c0-11.261,6.999-20.387,16.719-20.387c6.563,0,10.342,5.605,14.962,5.605c3.078,0,7.04-3.059,10.558-3.059     c8.032,0,12.762,7.989,12.762,17.84"/></g></g><line display="inline" fill="#000000" stroke="#FFFFFF" stroke-width="2" stroke-linecap="round" stroke-miterlimit="10" x1="56.082" y1="43.543" x2="56.082" y2="56.543"/><rect x="87" y="46" display="inline" width="50" height="8"/><circle display="inline" fill="#000000" cx="77.215" cy="50.084" r="6.25"/><g display="inline"><g><path d="M42-16.229C42-7.267,47.571,0,55.31,0c5.224,0,8.232-4.463,11.91-4.463c2.45,0,5.604,2.436,8.404,2.436     c6.394,0,10.158-6.359,10.158-14.202"/></g></g></g><g display="none"><path display="inline" d="M84.513,8.367c0,0-5.172,6.582-9.374,7.956c-0.674,1.908-1.672,4.504-1.672,4.504l2.826,2.827   l2.828,2.826c0,0,2.594-0.998,4.503-1.672c1.374-4.202,7.955-9.373,7.955-9.373L88.047,11.9L84.513,8.367z"/><g display="inline"><path d="M15.176,84.668l0.104,0.102c-7.84-7.839-9.319-19.067-2.554-25.834c4.569-4.569,11.81-1.173,15.025-4.39    c2.146-2.145,2.772-7.029,5.224-9.48c5.591-5.59,12.196-2.57,19.182,2.829L15.176,84.668z"/></g><path display="inline" d="M51.343,48.709l1.617,3.935c0,0-5.771,6.178-3.137,8.688c1.572,1.497,3.972,0.67,5.55,2.064   c1.126,0.994,1.362,2.231-0.545,4.018c-2.566,2.405-7.091,2.768-9.268,4.942c-3.267,3.269,0.493,10.264-4.147,14.904   c-6.872,6.874-18.276,5.368-26.238-2.593L51.343,48.709z"/><line display="inline" fill="#000000" stroke="#FFFFFF" stroke-width="2" stroke-linecap="round" stroke-miterlimit="10" x1="24.421" y1="69.87" x2="30.077" y2="75.526"/><rect x="35.323" y="36.622" transform="matrix(0.7071 -0.7071 0.7071 0.7071 -11.3488 53.8473)" display="inline" width="48.001" height="8.001"/><rect x="32.251" y="61.197" transform="matrix(0.7073 -0.7069 0.7069 0.7073 -36.917 43.2381)" display="inline" fill="#000000" width="3" height="9.999"/><rect x="39.322" y="54.126" transform="matrix(0.7071 -0.7071 0.7071 0.7071 -29.8513 46.1827)" display="inline" fill="#000000" width="3" height="9.998"/><line display="inline" fill="#000000" stroke="#FFFFFF" stroke-linecap="round" stroke-miterlimit="10" x1="27.249" y1="72.698" x2="75.373" y2="24.574"/><line display="inline" fill="#000000" stroke="#FFFFFF" stroke-linecap="round" stroke-miterlimit="10" x1="25.835" y1="71.284" x2="73.959" y2="23.16"/><line display="inline" fill="#000000" stroke="#FFFFFF" stroke-linecap="round" stroke-miterlimit="10" x1="28.663" y1="74.112" x2="76.788" y2="25.988"/></g><g><path d="M33.044,67.61l0.707,0.707l-4.734,4.734l-0.707-0.707L33.044,67.61z M31.63,66.196l-4.734,4.734l0.707,0.707l4.734-4.734   L31.63,66.196z M38.701,59.125l-4.949,4.949l0.707,0.707l4.949-4.949L38.701,59.125z M35.166,65.488l0.707,0.708l4.949-4.95   l-0.707-0.707L35.166,65.488z M91.579,15.436c0,0-6.581,5.171-7.955,9.373c-1.903,0.672-4.486,1.666-4.502,1.671l0.001,0   L52.952,52.652c-0.092,0.098-5.741,6.189-3.129,8.679c1.572,1.497,3.972,0.67,5.55,2.064c1.126,0.994,1.362,2.231-0.545,4.018   c-2.566,2.405-7.091,2.768-9.268,4.942c-3.267,3.269,0.493,10.264-4.147,14.904c-6.854,6.855-18.213,5.373-26.172-2.531   c0.014,0.014,0.024,0.027,0.038,0.041l-0.104-0.102l-0.001-0.001l0.005-0.005c-7.748-7.834-9.189-18.99-2.454-25.727   c4.569-4.569,11.81-1.173,15.025-4.39c2.146-2.145,2.772-7.029,5.224-9.48c4.686-4.685,10.084-3.313,15.821,0.429l24.67-24.669   l0.001,0.001c0.003-0.007,0.999-2.598,1.672-4.503c4.202-1.374,9.374-7.956,9.374-7.956l3.534,3.533L91.579,15.436z M77.142,25.635   c-0.195-0.195-0.512-0.195-0.707,0l-33.49,33.49l-0.708-0.707l33.49-33.49c0.195-0.195,0.195-0.512,0-0.707s-0.512-0.195-0.707,0   l-33.49,33.49l-0.707-0.707l33.49-33.49c0.195-0.195,0.195-0.512,0-0.707s-0.512-0.195-0.707,0l-33.49,33.49l-1.768-1.769   l-2.122,2.123l1.768,1.768l-4.948,4.948L31.276,61.6l-2.121,2.122l1.768,1.768l-4.734,4.734l-1.061-1.061   c-0.391-0.391-1.023-0.391-1.414,0s-0.391,1.023,0,1.414l5.656,5.656c0.195,0.195,0.451,0.293,0.707,0.293s0.512-0.098,0.707-0.293   c0.391-0.391,0.391-1.023,0-1.414l-1.061-1.061l4.734-4.734l1.768,1.768l2.122-2.121l-1.768-1.768l4.949-4.95l1.768,1.767   l2.121-2.121l-1.767-1.767l33.49-33.49C77.337,26.146,77.337,25.83,77.142,25.635z"/></g><text x="0" y="115" fill="#000000" font-size="5px" font-weight="bold" font-family="'Helvetica Neue', Helvetica, Arial-Unicode, Arial, Sans-serif">Created by Valter Bispo</text><text x="0" y="120" fill="#000000" font-size="5px" font-weight="bold" font-family="'Helvetica Neue', Helvetica, Arial-Unicode, Arial, Sans-serif">from the Noun Project</text></svg>