<svg xmlns="http://www.w3.org/2000/svg" xmlns:xlink="http://www.w3.org/1999/xlink" version="1.1" x="0px" y="0px" viewBox="0 0 100 125" enable-background="new 0 0 100 100" xml:space="preserve"><g><path fill="#000000" d="M44.466,59.631c0-0.676,0.132-1.322,0.369-1.913l-1.688-0.975l-4.905,2.453   c0.052,0.282,0.057,0.572,0.006,0.861l4.875,2.478l1.711-0.991C44.598,60.953,44.466,60.309,44.466,59.631z"/><path fill="#000000" d="M53.604,56.481l1.69-0.976l0.325-5.426c-0.283-0.099-0.549-0.251-0.78-0.453l-4.548,2.961v1.98   C51.635,54.756,52.809,55.463,53.604,56.481z"/><path fill="#000000" d="M45.551,62.78l-1.689,0.975l-0.329,5.493c0.265,0.094,0.516,0.233,0.737,0.416l4.596-2.991v-1.979   C47.521,64.507,46.348,63.799,45.551,62.78z"/><path fill="#000000" d="M45.551,56.481c0.797-1.019,1.971-1.726,3.314-1.913v-1.951l-4.579-3.021   c-0.217,0.188-0.468,0.336-0.741,0.438l0.291,5.459L45.551,56.481z"/><circle fill="#000000" cx="49.579" cy="59.631" r="2.423"/><path fill="#000000" d="M60.911,59.207l-4.877-2.479l-1.713,0.989c0.239,0.591,0.371,1.237,0.371,1.913   c0,0.678-0.132,1.322-0.371,1.913l1.688,0.976l4.892-2.446C60.854,59.79,60.856,59.496,60.911,59.207z"/><path fill="#000000" d="M53.604,62.78c-0.796,1.019-1.97,1.727-3.312,1.914v1.95l4.589,3.027c0.216-0.18,0.463-0.32,0.733-0.416   l-0.294-5.485L53.604,62.78z"/><path fill="#000000" d="M56.126,20.365v-6.358c0-1.334-1.082-2.416-2.416-2.416h-1.059c1.384-0.943,2.293-2.532,2.293-4.333   c0-2.75-2.118-5-4.812-5.22V0h-0.976v2.045c-2.64,0.271-4.696,2.502-4.696,5.213c0,1.801,0.907,3.39,2.291,4.333h-1.451   c-1.334,0-2.416,1.082-2.416,2.416v6.425c-18.58,3.23-32.707,19.434-32.707,38.938c0,21.829,17.695,39.524,39.524,39.524   c21.827,0,39.522-17.695,39.522-39.524C89.225,39.729,74.9,23.435,56.126,20.365z M45.566,7.258c0-2.099,1.565-3.828,3.591-4.096   v0.304c0,0.324,0.255,0.488,0.488,0.488c0.232,0,0.487-0.164,0.487-0.488V3.145c2.082,0.216,3.705,1.975,3.705,4.113   c0,2.283-1.852,4.135-4.136,4.135S45.566,9.541,45.566,7.258z M73.088,76.745c-1.982,0-3.59-1.604-3.59-3.586   c0-0.385,0.062-0.754,0.172-1.103l-5.997-3.462l0.973,7.186c0.273,0.047,0.538,0.141,0.791,0.289   c1.151,0.663,1.545,2.136,0.881,3.287c-0.665,1.152-2.138,1.548-3.289,0.882c-1.152-0.666-1.545-2.138-0.882-3.29   c0.26-0.449,0.645-0.785,1.084-0.985l-1.121-8.273l-5.312-3.065l0.244,4.577c1.027,0.275,1.781,1.212,1.781,2.327   c0,1.329-1.076,2.408-2.405,2.408c-1.332,0-2.41-1.079-2.41-2.408c0-0.229,0.032-0.452,0.091-0.66l-3.806-2.513v6.136l6.606,5.11   c0.385-0.261,0.848-0.411,1.344-0.411c1.332,0,2.408,1.076,2.408,2.408c0,1.329-1.076,2.408-2.408,2.408   c-1.328,0-2.408-1.079-2.408-2.408c0-0.312,0.062-0.611,0.169-0.885l-5.711-4.416v6.934c0.986,0.188,1.888,0.788,2.429,1.728   c0.991,1.716,0.403,3.908-1.311,4.899c-1.716,0.991-3.909,0.403-4.9-1.313c-0.99-1.717-0.402-3.909,1.313-4.899   c0.333-0.19,0.685-0.325,1.042-0.4v-6.926l-5.726,4.426c0.102,0.266,0.155,0.555,0.155,0.854c0,1.329-1.078,2.408-2.407,2.408   c-1.332,0-2.408-1.077-2.408-2.408c0-1.332,1.077-2.408,2.408-2.408c0.51,0,0.983,0.158,1.374,0.429l6.604-5.104v-6.138   l-3.818,2.485c0.293,1.035-0.139,2.178-1.114,2.739c-1.152,0.666-2.624,0.272-3.29-0.882c-0.666-1.149-0.271-2.621,0.881-3.287   c0.188-0.109,0.382-0.19,0.582-0.242l0.273-4.58l-5.314,3.069l-1.118,8.275c0.429,0.203,0.805,0.533,1.061,0.976   c0.666,1.151,0.271,2.624-0.88,3.289c-1.153,0.666-2.625,0.271-3.292-0.881c-0.665-1.152-0.271-2.624,0.882-3.29   c0.259-0.148,0.534-0.245,0.814-0.289l0.97-7.178l-6.002,3.467c0.328,0.949,0.257,2.031-0.284,2.968   c-0.991,1.716-3.185,2.304-4.899,1.312c-1.715-0.988-2.302-3.183-1.312-4.896c0.99-1.717,3.185-2.305,4.9-1.313   c0.332,0.192,0.623,0.429,0.867,0.702l6-3.464l-6.66-2.731c-0.18,0.222-0.402,0.414-0.664,0.564   c-1.152,0.666-2.624,0.271-3.289-0.882c-0.666-1.151-0.271-2.624,0.882-3.289c1.151-0.666,2.623-0.271,3.289,0.882   c0.255,0.441,0.354,0.931,0.314,1.401l7.69,3.151l5.313-3.068l-4.049-2.057c-0.749,0.769-1.953,0.965-2.926,0.402   c-1.152-0.666-1.546-2.138-0.882-3.29c0.666-1.152,2.138-1.546,3.29-0.882c0.183,0.106,0.347,0.232,0.491,0.376l4.095-2.048   l-5.315-3.068l-7.713,3.16c0.044,0.478-0.055,0.973-0.312,1.419c-0.666,1.15-2.138,1.545-3.29,0.88   c-1.152-0.664-1.546-2.138-0.882-3.29c0.666-1.15,2.138-1.544,3.29-0.88c0.256,0.148,0.476,0.336,0.653,0.552l6.69-2.744   l-6.004-3.466c-0.658,0.759-1.629,1.239-2.712,1.239c-1.98,0-3.586-1.605-3.586-3.586s1.606-3.587,3.586-3.587   c1.981,0,3.586,1.606,3.586,3.587c0,0.385-0.06,0.755-0.172,1.103l5.997,3.463l-0.966-7.131c-0.274-0.047-0.547-0.142-0.802-0.29   c-1.152-0.665-1.548-2.138-0.882-3.289c0.665-1.152,2.138-1.547,3.29-0.882c1.152,0.665,1.545,2.139,0.88,3.289   c-0.258,0.447-0.636,0.78-1.07,0.98l1.113,8.225l5.314,3.069l-0.242-4.536c-1.042-0.266-1.811-1.209-1.811-2.334   c0-1.329,1.078-2.407,2.408-2.407c1.329,0,2.408,1.078,2.408,2.407c0,0.212-0.028,0.417-0.081,0.613l3.822,2.523v-6.137   l-6.596-5.099c-0.391,0.275-0.869,0.437-1.382,0.437c-1.332,0-2.408-1.078-2.408-2.406c0-1.331,1.077-2.41,2.408-2.41   c1.329,0,2.407,1.079,2.407,2.41c0,0.295-0.053,0.577-0.149,0.84l5.72,4.424v-6.934c-0.987-0.19-1.89-0.792-2.431-1.729   c-0.989-1.715-0.403-3.907,1.313-4.898c1.714-0.989,3.909-0.403,4.898,1.313c0.991,1.714,0.403,3.907-1.313,4.896   c-0.331,0.193-0.684,0.327-1.041,0.403v6.926l5.693-4.401c-0.097-0.263-0.151-0.545-0.151-0.84c0-1.331,1.08-2.41,2.408-2.41   c1.329,0,2.408,1.079,2.408,2.41c0,1.328-1.079,2.406-2.408,2.406c-0.515,0-0.993-0.161-1.383-0.437l-6.567,5.078v6.135   l3.795-2.471c-0.268-1.022,0.168-2.138,1.128-2.691c1.152-0.665,2.625-0.27,3.29,0.882c0.663,1.151,0.269,2.625-0.881,3.289   c-0.188,0.107-0.38,0.185-0.578,0.239l-0.268,4.518l5.313-3.068l1.11-8.212c-0.429-0.201-0.807-0.532-1.062-0.977   c-0.665-1.152-0.271-2.624,0.88-3.29c1.151-0.664,2.626-0.27,3.289,0.882c0.666,1.152,0.271,2.625-0.881,3.29   c-0.258,0.149-0.533,0.245-0.812,0.291l-0.963,7.113l6.006-3.467c-0.328-0.949-0.261-2.03,0.283-2.968   c0.988-1.715,3.183-2.303,4.897-1.313c1.716,0.989,2.301,3.184,1.312,4.9c-0.99,1.715-3.183,2.301-4.899,1.312   c-0.333-0.193-0.624-0.432-0.868-0.703l-5.998,3.464l6.692,2.743c0.171-0.199,0.379-0.374,0.618-0.513   c1.152-0.666,2.625-0.271,3.29,0.882c0.666,1.151,0.271,2.624-0.882,3.29c-1.149,0.664-2.624,0.271-3.287-0.882   c-0.268-0.463-0.364-0.976-0.31-1.467l-7.685-3.149l-5.316,3.067l4.081,2.072c0.752-0.738,1.933-0.918,2.89-0.365   c1.151,0.665,1.547,2.138,0.881,3.289c-0.665,1.152-2.138,1.548-3.289,0.883c-0.198-0.116-0.372-0.252-0.525-0.41l-4.055,2.029   l5.315,3.066l7.701-3.154c-0.031-0.463,0.067-0.939,0.317-1.37c0.665-1.152,2.138-1.546,3.289-0.882   c1.152,0.666,1.545,2.138,0.882,3.289c-0.665,1.152-2.138,1.548-3.29,0.882c-0.271-0.156-0.499-0.356-0.684-0.588l-6.652,2.729   l6.005,3.467c0.655-0.76,1.628-1.24,2.713-1.24c1.979,0,3.583,1.604,3.583,3.586S75.066,76.745,73.088,76.745z"/></g><text x="0" y="115" fill="#000000" font-size="5px" font-weight="bold" font-family="'Helvetica Neue', Helvetica, Arial-Unicode, Arial, Sans-serif">Created by Simon Child</text><text x="0" y="120" fill="#000000" font-size="5px" font-weight="bold" font-family="'Helvetica Neue', Helvetica, Arial-Unicode, Arial, Sans-serif">from the Noun Project</text></svg>