<svg xmlns="http://www.w3.org/2000/svg" data-name="Layer 1" viewBox="0 0 100 125" x="0px" y="0px"><title>Noun_Project_100Icon_10px_grid</title><g><path d="M93.2,57.2H6.8v18H93.2ZM11,59.4h3v1.2H11Zm-2.1,3a.9.9,0,0,1-.3-1.74v-1a1.51,1.51,0,0,1,.3,0l.3,0v1a.91.91,0,0,1,.6.84A.9.9,0,0,1,8.9,62.4Zm1.7,9.4h-1V64.4h1ZM11,62h3v1.2H11Zm3,9.8H13V64.4h1Zm3.6,2.8H15.2V57.8h1.6V69h.8Zm3,0H18.2V69h.4V57.8H20V69h.6Zm3,0H21.2V69h.6V57.8h1.4V69h.4Zm3,0H24.2V69H25V57.8h1.6Zm3,0H27.2V57.8H29V69h.6Zm3,0H30.2V69h.6V57.8H32V69h.6Zm3,0H33.2V69h.6V57.8h1.8Zm3,0H36.2V57.8h1.6V69h.8Zm3,0H39.2V69h.4V57.8H41V69h.6Zm3,0H42.2V69h.6V57.8h1.4V69h.4Zm3,0H45.2V69H46V57.8h1.6Zm3,0H48.2V57.8H50V69h.6Zm3,0H51.2V69h.6V57.8H53V69h.6Zm3,0H54.2V69h.6V57.8h1.8Zm3,0H57.2V57.8h1.6V69h.8Zm3,0H60.2V69h.4V57.8H62V69h.6Zm3,0H63.2V69h.6V57.8h1.4V69h.4Zm3,0H66.2V69H67V57.8h1.6Zm3,0H69.2V57.8H71V69h.6Zm3,0H72.2V69h.6V57.8H74V69h.6Zm3,0H75.2V69h.6V57.8h1.8Zm3,0H78.2V57.8h1.6V69h.8Zm3,0H81.2V69h.4V57.8H83V69h.6Zm3,0H84.2V69h.6V57.8h1.4V69h.4Zm3,0H87.2V69H88V57.8h1.6Zm3,0H90.2V57.8h2.4Z"/><rect x="78.8" y="50.8" width="9.4" height="4.8"/><path d="M92.4,27H7.6V48.2H92.4ZM81.2,30.66v-1a1.51,1.51,0,0,1,.3,0l.3,0v1a.91.91,0,0,1,.6.84.9.9,0,1,1-1.2-.84ZM59.6,27.6h.6v2.2h-.6Zm-40.2,0H20v5h-.6ZM10.7,40.8a.9.9,0,0,1-.3-1.74V38a1.51,1.51,0,0,1,.3,0l.3,0v1a.91.91,0,0,1,.6.84A.9.9,0,0,1,10.7,40.8Zm2.8-5.6a.9.9,0,0,1-.3-1.74v-1a1.51,1.51,0,0,1,.3,0l.3,0v1a.91.91,0,0,1,.6.84A.9.9,0,0,1,13.5,35.2Zm2.8,5.6a.9.9,0,0,1-.3-1.74V38a1.51,1.51,0,0,1,.3,0l.3,0v1a.91.91,0,0,1,.6.84A.9.9,0,0,1,16.3,40.8Zm1.9-7h3V35h-3ZM20,47.6h-.6V36H20ZM22,44H20.8V41H22Zm2.5-.6a.71.71,0,0,1-.7-.7.66.66,0,0,1,.4-.62V40.84a1.51,1.51,0,0,1,.3,0l.3,0v1.24a.71.71,0,0,1,.4.64A.7.7,0,0,1,24.5,43.4Zm0-5.6a.71.71,0,0,1-.7-.7.66.66,0,0,1,.4-.62V35.24a1.51,1.51,0,0,1,.3,0l.3,0v1.24a.71.71,0,0,1,.4.64A.7.7,0,0,1,24.5,37.8Zm0-5.6a.71.71,0,0,1-.7-.7.66.66,0,0,1,.4-.62V29.64a1.51,1.51,0,0,1,.3,0l.3,0v1.24a.71.71,0,0,1,.4.64A.7.7,0,0,1,24.5,32.2ZM29.7,44a1.3,1.3,0,0,1-.3-2.56v-.62a1.51,1.51,0,0,1,.3,0l.3,0v.62A1.3,1.3,0,0,1,29.7,44Zm0-5.6a1.3,1.3,0,0,1-.3-2.56v-.62a1.51,1.51,0,0,1,.3,0l.3,0v.62a1.3,1.3,0,0,1-.3,2.56Zm5.4,5a.71.71,0,0,1-.7-.7.66.66,0,0,1,.4-.62V40.84a1.51,1.51,0,0,1,.3,0l.3,0v1.24a.69.69,0,0,1-.3,1.32Zm0-5.6a.71.71,0,0,1-.7-.7.66.66,0,0,1,.4-.62V35.24a1.51,1.51,0,0,1,.3,0l.3,0v1.24a.69.69,0,0,1-.3,1.32Zm0-5.6a.71.71,0,0,1-.7-.7.66.66,0,0,1,.4-.62V29.64a1.51,1.51,0,0,1,.3,0l.3,0v1.24a.69.69,0,0,1-.3,1.32Zm3.3,15.4h-.6v-20h.6Zm2.7-4a.9.9,0,0,1-.3-1.74v-1a1.51,1.51,0,0,1,.3,0l.3,0v1a.91.91,0,0,1,.6.84A.9.9,0,0,1,41.1,43.6Zm0-5.6a.9.9,0,0,1-.3-1.74v-1a1.51,1.51,0,0,1,.3,0l.3,0v1a.91.91,0,0,1,.6.84A.9.9,0,0,1,41.1,38Zm0-5.6a.9.9,0,0,1-.3-1.74v-1a1.51,1.51,0,0,1,.3,0l.3,0v1a.91.91,0,0,1,.6.84A.9.9,0,0,1,41.1,32.4ZM48,43.2H45V42h3Zm0-2.8H45V39.2h3Zm0-2.8H45V36.4h3Zm0-2.8H45V33.6h3ZM48,32H45V30.8h3Zm4.1,8.8a.9.9,0,0,1-.3-1.74V38a1.51,1.51,0,0,1,.3,0l.3,0v1a.91.91,0,0,1,.6.84A.9.9,0,0,1,52.1,40.8Zm0-5.6a.9.9,0,0,1-.3-1.74v-1a1.51,1.51,0,0,1,.3,0l.3,0v1a.91.91,0,0,1,.6.84A.9.9,0,0,1,52.1,35.2Zm4.5,6H55.4v-3h1.2Zm3.6,6.4h-.6v-9h.6Zm1.2-10h-3V36.4h3Zm0-2.8h-3V33.6h3Zm0-2.8h-3V30.8h3Zm3.3,11.6a.9.9,0,0,1-.3-1.74v-1a1.51,1.51,0,0,1,.3,0l.3,0v1a.91.91,0,0,1,.6.84A.9.9,0,0,1,64.7,43.6Zm0-5.6a.9.9,0,0,1-.3-1.74v-1a1.51,1.51,0,0,1,.3,0l.3,0v1a.91.91,0,0,1,.6.84A.9.9,0,0,1,64.7,38Zm0-5.6a.9.9,0,0,1-.3-1.74v-1a1.51,1.51,0,0,1,.3,0l.3,0v1a.91.91,0,0,1,.6.84A.9.9,0,0,1,64.7,32.4Zm5.4,11.2a.9.9,0,0,1-.3-1.74v-1a1.51,1.51,0,0,1,.3,0l.3,0v1a.91.91,0,0,1,.6.84A.9.9,0,0,1,70.1,43.6Zm0-5.6a.9.9,0,0,1-.3-1.74v-1a1.51,1.51,0,0,1,.3,0l.3,0v1a.91.91,0,0,1,.6.84A.9.9,0,0,1,70.1,38Zm0-5.6a.9.9,0,0,1-.3-1.74v-1a1.51,1.51,0,0,1,.3,0l.3,0v1a.91.91,0,0,1,.6.84A.9.9,0,0,1,70.1,32.4Zm5.4,11.2a.9.9,0,0,1-.3-1.74v-1a1.51,1.51,0,0,1,.3,0l.3,0v1a.91.91,0,0,1,.6.84A.9.9,0,0,1,75.5,43.6Zm0-5.6a.9.9,0,0,1-.3-1.74v-1a1.51,1.51,0,0,1,.3,0l.3,0v1a.91.91,0,0,1,.6.84A.9.9,0,0,1,75.5,38Zm0-5.6a.9.9,0,0,1-.3-1.74v-1a1.51,1.51,0,0,1,.3,0l.3,0v1a.91.91,0,0,1,.6.84A.9.9,0,0,1,75.5,32.4Zm3.3,15.2h-.6v-20h.6Zm2.7-4a.9.9,0,0,1-.3-1.74v-1a1.51,1.51,0,0,1,.3,0l.3,0v1a.91.91,0,0,1,.6.84A.9.9,0,0,1,81.5,43.6Zm1.5-6H80V36.4h3ZM87.2,32h-3V30.8h3Zm1.6,15.6h-.6v-20h.6Z"/><path d="M5,23V77H95V23ZM94.4,76.4H5.6V23.6H94.4Z"/></g><text x="0" y="115" fill="#000000" font-size="5px" font-weight="bold" font-family="'Helvetica Neue', Helvetica, Arial-Unicode, Arial, Sans-serif">Created by Kentaro Terajima</text><text x="0" y="120" fill="#000000" font-size="5px" font-weight="bold" font-family="'Helvetica Neue', Helvetica, Arial-Unicode, Arial, Sans-serif">from the Noun Project</text></svg>