<svg xmlns="http://www.w3.org/2000/svg" data-name="Layer 1" viewBox="0 0 94.57 120" x="0px" y="0px"><title>09</title><path d="M94.81,53.93c-1.75-2.37-3.92-5.32-4.26-7.48a14,14,0,0,1,.23-4.5,15.94,15.94,0,0,0-.44-8.61c-.36-1-.79-2.07-1.27-3.14,1.29-.35,3.55-.71,3,1.34-.72,2.83.77,2.91.77,2.91,5.42,1,1.94,4.64,1.94,4.64,1.94-.39,2.9-3.68,1.6-4.64s-2.18.19-2.76-3.68-3.46-2.43-3.46-2.43h-2a41.57,41.57,0,0,0-2.29-3.94h.95c.45,1.66,1.23,3.23,2.56,1.92a2.64,2.64,0,0,0,.52-3.12,4.2,4.2,0,0,1,1.42-.58c.77,0,.39,1,2.52,1.78s3.68-2.34,2.57-1.68-3-.86-4.31-2.4c-1-1.17-2.13.33-2.89,1.45a21.37,21.37,0,0,1-1.37-2.62c-1-2.52-2.52-2.9-3.87-2.71s-1.36-1.36-3-2.32a5.87,5.87,0,0,0-2-.62l-.55-.17s.84-1.66-2.53-3.29,2.91-2.81,2.53-4.54-2.32,1.19-3.53-1.73-2.37-1.73-4.41,0-4.65,0-6.68,0-1.59,4.72-3.56,3.81-.49-3.81-4.42-3.81-2.77,4-5.38,2-1.6-3.75-3.27-2a2.46,2.46,0,0,0-.73,2c-.72-1.35-2-2.81-4-2-3.36,1.44.11,2.6-2.79,2.6s-3-1.45-5.27-.58S33.91,9.35,36.23,10,33,13.7,30.42,10s-5.23,2.46-5.23,2.46-4-.28-2.81,5c-2.05.6-4,1.94-3.87,2.56a5.77,5.77,0,0,1-1,3.06c-1.41-.67-4-1.29-5.09,2.41a9.41,9.41,0,0,0-.37,1.75,2.38,2.38,0,0,0-1.19,1l-2,3.3s.87,4.19-2,3.84S6.6,39.88,8.05,39.1s-.72,5.35,2.83,3.45l.71-.36C11.76,44,11.45,46,9.51,47,5.73,48.78,6,48.52,7.18,53.15s-4.36,0-3.2,2.33-3.23,4-.16,5.79,1.6-2.9,3.35-1.6,3.19,4.5,0,6,3.71,4.36,3.71,2.61,1-2.61,1.56-.58,1.79,7.55,4.8-1.16c0,0,3.3-2.9,2.72.87-.31,2,1.37,1.48,3,.54,1.09,1.7-.17,2.71-3.6,3.24-3.78.58-1.74,4.65,0,5.81,0,0-1.16-5.81,2.61-3.49s3.2-3.59,3.2-3.59S28,71.15,27.33,72.6s-3.24,3.78-.95,5.52-1.19,1.45-2.06,2S23.8,86,26.39,84.51s3.75-3.18,5.35-2.46c1.16.53,2.35-2,2.71-4.36a18.63,18.63,0,0,1,3,2.75,6.25,6.25,0,0,0,1,.92,9.6,9.6,0,0,1-2,3.07,4.39,4.39,0,0,0-1.3,3.5,4,4,0,0,0,1.7,3,4,4,0,0,0,.46.27l.15.08C43.82,94.85,53.92,98,60.79,98a15.09,15.09,0,0,0,3.61-.38c.1,0,2.54-.64,3.12-4.26.54-3.37,2.75-8.81,4.28-9.76,1.24-.77,5.79-.16,8.51.21,1,.14,1.9.26,2.58.32,1.19.1,4.16.11,6.16-1.94,1.38-1.41,1.94-3.43,1.66-6a.88.88,0,0,0,0-.11c0-.11-.59-2.63,1-3.06a2.19,2.19,0,0,0,1.58-1.35,4.69,4.69,0,0,0-.59-3.5A3.19,3.19,0,0,0,94,66.59a3.73,3.73,0,0,0-.69-3.37c-.38-.57-.31-.86-.29-1,.15-.63,1.22-1.24,2.08-1.73,1.06-.6,2.06-1.17,2.17-2.15S96.55,56.29,94.81,53.93ZM57,56c-.23-.13-.48-.27-.76-.4a.88.88,0,0,0-.24-.08,6.57,6.57,0,0,1-2.8-1.1,4.46,4.46,0,0,1-.56-.6c.57-2,.73-2,2-1.33l0,.13a.87.87,0,0,0,1.53.78,7.21,7.21,0,0,1,.84,1A9,9,0,0,0,57,56Zm-4.91-.23a8.13,8.13,0,0,0,3.51,1.46c2.89,1.42,2.78,2.85,2.74,3.09-.55,1-1.15,1.49-1.83,1.56-1.28.13-3.12-1.14-5.49-3.79A7.69,7.69,0,0,0,52.12,55.8ZM24.9,15.47c1.16-.1,3.78-2.48,5.23.16,0,0-2.26,5.45-3.75,2.64-.57-1.08-1.92-1.23-3.33-.94C23.5,16.55,24.2,15.53,24.9,15.47ZM16.74,26.33a16.14,16.14,0,0,1,.37,2.18,11.74,11.74,0,0,0-2.44-1.13C15.06,26.51,15.91,25.82,16.74,26.33ZM94.24,59c-1.16.66-2.59,1.47-2.92,2.84a2.91,2.91,0,0,0,.53,2.33,2.29,2.29,0,0,1,.5,1.81,1.91,1.91,0,0,1-1.13,1,.87.87,0,0,0-.47,1.31c.52.78,1.12,2.18.9,2.76,0,.06-.07.2-.4.28C88.7,72,88.65,74.92,89,76.41A5.46,5.46,0,0,1,87.8,81c-1.53,1.56-4,1.48-4.77,1.42s-1.5-.17-2.49-.31c-4.47-.61-8-1-9.66,0-2.39,1.49-4.6,8-5.07,11C65.42,95.49,64,95.91,64,95.92c-5.83,1.46-18.37-2.06-25.68-6.18l-.21-.11a2.17,2.17,0,0,1-.26-.15,2.26,2.26,0,0,1-1-1.7,2.69,2.69,0,0,1,.79-2.11A11.31,11.31,0,0,0,40.09,82a2.26,2.26,0,0,0,2-.85,5,5,0,0,0,3,.87c3.06,0,0,2.72,0,2.72,4,.93,1.8-6.74,0-5.39-1.38,1-2.55-1.1-3-2.16-.41-2,.25-3.69.35-4.91a.48.48,0,0,1,.2-.38l1.19.67c3.1,1.74,3.87-.77,3.31-3.1s-.8-2.71,1.38-4.07.49-4.2.49-4.2h0A7.4,7.4,0,0,1,50,59.52c2.58,2.85,4.6,4.16,6.39,4.16l.38,0a4.27,4.27,0,0,0,3.22-2.55L60,61a3.24,3.24,0,0,0-.36-2.54v0c.76.91,1.49,1.18,2.23-.11,2-3.43-3.12-2.33-1.6-5.64A18.83,18.83,0,0,0,62,47.54c1.19-.85,2.48-2,1.68-2.44-1.36-.77,0-2.9.77-6,.34-1.36-.61-2.49-1.78-3.34a6.37,6.37,0,0,1,2.94-2.17A13.4,13.4,0,0,1,67.28,33c0,2-3,2.07-1.13,3.53,2.44,1.92,1.55,3.52,2,4.3s2.61-1.36,1.64-2.52a2.74,2.74,0,0,1,.58-3.87c1.16-.58,1.94-3.1-.77-4.26.87-3.78-.5-1.74,2.07-4.94a4.31,4.31,0,0,1,2.2-1.52c-.24,2.33.85,3.49.37,4.13s-1.36,3.29-.58,4.26-1.55,3.29,1.16,4.26,2.5-2.9,2.5-2.9,2-2.71.6-3.87c-.78-.67-.66-2.3-.42-3.56,1,1,1.84,1.25,1.85,1.84,0,1,.92,3.44,2.13,3.74s.77,3.56,3.51,2.68.22-3.82.22-3.82-.09-3.34-1.88-3.44c-1.43-.08-2.61-2.7-3-3.73A6.07,6.07,0,0,0,82,22.07a41.07,41.07,0,0,1,6.7,11.85,14.28,14.28,0,0,1,.36,7.76,15.53,15.53,0,0,0-.23,5c.41,2.58,2.72,5.72,4.58,8.24a20.47,20.47,0,0,1,2.13,3.2A6.38,6.38,0,0,1,94.24,59Z" transform="translate(-2.72 -2)"/><text x="0" y="111" fill="#000000" font-size="5px" font-weight="bold" font-family="'Helvetica Neue', Helvetica, Arial-Unicode, Arial, Sans-serif">Created by parkjisun</text><text x="0" y="116" fill="#000000" font-size="5px" font-weight="bold" font-family="'Helvetica Neue', Helvetica, Arial-Unicode, Arial, Sans-serif">from the Noun Project</text></svg>